<?xml version="1.0" encoding="utf-8"?>
<!-- Generator: Adobe Illustrator 25.2.3, SVG Export Plug-In . SVG Version: 6.00 Build 0)  -->
<svg version="1.1" id="Layer_1" xmlns="http://www.w3.org/2000/svg" xmlns:xlink="http://www.w3.org/1999/xlink" x="0px" y="0px"
	 viewBox="0 0 1008 1008" style="enable-background:new 0 0 1008 1008;" xml:space="preserve">
<style type="text/css">
	.st0{opacity:0.25;fill:#1C75BC;stroke:#2E3192;stroke-width:4;stroke-miterlimit:10;stroke-dasharray:12;}
	.st1{fill:#FFFFFF;stroke:#000000;stroke-width:3;stroke-miterlimit:10;}
	.st2{font-family:'TimesNewRomanPSMT';}
	.st3{font-size:48px;}
	.st4{fill:#FFFFFF;stroke:#BE1E2D;stroke-width:3;stroke-miterlimit:10;}
	.st5{fill:none;stroke:#000000;stroke-width:3;stroke-miterlimit:10;}
	.st6{fill:none;stroke:#ED1C24;stroke-width:3;stroke-miterlimit:10;}
	.st7{fill:#ED1C24;}
</style>
<path class="st0" d="M902.55,612h-797.1C67.09,612,36,580.91,36,542.55v-365.1C36,139.09,67.09,108,105.45,108h797.1
	c38.36,0,69.45,31.09,69.45,69.45v365.1C972,580.91,940.91,612,902.55,612z"/>
<path class="st1" d="M397.55,93.6h-288c-19.88,0-36-16.12-36-36v0c0-19.88,16.12-36,36-36h288c19.88,0,36,16.12,36,36v0
	C433.55,77.48,417.43,93.6,397.55,93.6z"/>
<text transform="matrix(1 0 0 1 107.9118 70.1859)" class="st2 st3">Neutron events</text>
<rect x="91.55" y="244.8" class="st1" width="324" height="72"/>
<text transform="matrix(1 0 0 1 119.5676 293.3859)" class="st2 st3">2D Reduction</text>
<rect x="577.55" y="342" class="st4" width="288" height="72"/>
<text transform="matrix(1 0 0 1 613.5717 390.5859)" class="st2 st3">Calibration</text>
<g>
	<g>
		<line class="st5" x1="253.05" y1="93.6" x2="253.05" y2="213.14"/>
		<g>
			<path d="M253.05,207.76l10.81-6.57l0.24,0.37l-7,17.62c-1.35,6.14-2.7,12.28-4.05,18.42c-1.35-6.14-2.7-12.28-4.05-18.42
				l-7-17.62l0.18-0.37L253.05,207.76z"/>
		</g>
	</g>
</g>
<rect x="110.05" y="468" class="st1" width="288" height="72"/>
<text transform="matrix(1 0 0 1 136.5232 516.5857)" class="st2 st3">Peak Fitting</text>
<g>
	<g>
		<line class="st5" x1="253.55" y1="317.6" x2="253.55" y2="437.14"/>
		<g>
			<path d="M253.55,431.76l10.81-6.57l0.24,0.37l-7,17.62c-1.35,6.14-2.7,12.28-4.05,18.42c-1.35-6.14-2.7-12.28-4.05-18.42
				l-7-17.62l0.18-0.37L253.55,431.76z"/>
		</g>
	</g>
</g>
<rect x="92.05" y="691.2" class="st5" width="324" height="72"/>
<text transform="matrix(1 0 0 1 106.7088 739.7863)" class="st2 st3">Stress Analysis</text>
<rect x="510.59" y="468.1" class="st1" width="417.6" height="72"/>
<text transform="matrix(1 0 0 1 536.6875 516.5859)" class="st2 st3">Pole Figure Export</text>
<rect x="492.95" y="147.6" class="st4" width="457.2" height="72"/>
<text transform="matrix(1 0 0 1 510.2829 196.1859)" class="st2 st3">Reduction Parameters</text>
<g>
	<g>
		<line class="st5" x1="253.05" y1="540.6" x2="253.05" y2="660.14"/>
		<g>
			<path d="M253.05,654.76l10.81-6.57l0.24,0.37l-7,17.62c-1.35,6.14-2.7,12.28-4.05,18.42c-1.35-6.14-2.7-12.28-4.05-18.42
				l-7-17.62l0.18-0.37L253.05,654.76z"/>
		</g>
	</g>
</g>
<g>
	<g>
		<line class="st6" x1="712.53" y1="279.39" x2="444.51" y2="279.39"/>
		<g>
			<path class="st7" d="M449.89,279.39l6.57,10.81l-0.37,0.24l-17.62-7c-6.14-1.35-12.28-2.7-18.42-4.05
				c6.14-1.35,12.28-2.7,18.42-4.05l17.62-7l0.37,0.18L449.89,279.39z"/>
		</g>
	</g>
</g>
<path class="st6" d="M724.01,291.78c0-6.85-5.54-12.4-12.4-12.4"/>
<line class="st6" x1="724.03" y1="343.1" x2="724.03" y2="291.78"/>
<path class="st6" d="M711.69,279.22c6.85,0,12.4-5.54,12.4-12.4"/>
<line class="st6" x1="724.09" y1="266.83" x2="724.05" y2="219.1"/>
<g>
	<g>
		<line class="st5" x1="397.3" y1="504.1" x2="480.84" y2="504.1"/>
		<g>
			<path d="M475.46,504.1l-6.57-10.81l0.37-0.24l17.62,7c6.14,1.35,12.28,2.7,18.42,4.05c-6.14,1.35-12.28,2.7-18.42,4.05l-17.62,7
				l-0.37-0.18L475.46,504.1z"/>
		</g>
	</g>
</g>
<rect x="14.65" y="914.4" class="st5" width="478.8" height="72"/>
<text transform="matrix(1 0 0 1 42.0149 962.9857)" class="st2 st3">Resdual Stress Export</text>
<g>
	<g>
		<line class="st5" x1="253.35" y1="763.6" x2="253.35" y2="883.14"/>
		<g>
			<path d="M253.35,877.76l10.81-6.57l0.24,0.37l-7,17.62c-1.35,6.14-2.7,12.28-4.05,18.42c-1.35-6.14-2.7-12.28-4.05-18.42
				l-7-17.62l0.18-0.37L253.35,877.76z"/>
		</g>
	</g>
</g>
<rect x="553.5" y="687.5" class="st5" width="396" height="126"/>
<text transform="matrix(1 0 0 1 628.1725 734.2864)"><tspan x="0" y="0" class="st2 st3">published on</tspan><tspan x="-39.33" y="57.6" class="st2 st3">monitor.ornl.gov</tspan></text>
<g>
	<g>
		<line class="st5" x1="751.5" y1="612" x2="751.5" y2="659.54"/>
		<g>
			<path d="M751.5,654.16l10.81-6.57l0.24,0.37l-7,17.62c-1.35,6.14-2.7,12.28-4.05,18.42c-1.35-6.14-2.7-12.28-4.05-18.42l-7-17.62
				l0.18-0.37L751.5,654.16z"/>
		</g>
	</g>
</g>
<text transform="matrix(1 0 0 1 585.2992 94.0698)" class="st2 st3">Autoreduction</text>
</svg>
